<svg id="Calque_2" data-name="Calque 2" xmlns="http://www.w3.org/2000/svg" viewBox="0 0 350.23 577.73"><defs><style>.cls-1,.cls-2{opacity:0.59;}.cls-2{fill:#b3b3b3;}</style></defs><title>logo2</title><path class="cls-2" d="M690.15,192.46c41.09,4.31,80.26-12.71,101.07-44.52,19.11-29.2,15.82-60.29,14.44-69.79-4.36-.68-53.46-7.42-89,30.08C683.71,142.92,689.35,187,690.15,192.46Z" transform="translate(-493.94 -77.26)"/><path class="cls-2" d="M687.74,211.72s54.15-24.07,67.38,55.35c0,0,1.21,21.66,2.41,37.3,0,0-102.28,170.87,86.64,225,0,0-14.44,138.38-156.43,123.94,0,0-9.63-6-19.25,0,0,0-134.77,25.27-173.28-120.33,0,0-13.23-71,45.73-151.61,0,0,34.89-52.95,56.55-136,0,0,10.83-53,69.79-33.69C667.28,211.72,678.11,218.94,687.74,211.72Z" transform="translate(-493.94 -77.26)"/></svg>